<?xml version="1.0" standalone="no"?><!DOCTYPE svg PUBLIC "-//W3C//DTD SVG 1.1//EN" "http://www.w3.org/Graphics/SVG/1.1/DTD/svg11.dtd"><svg t="1579532819544" class="icon" viewBox="0 0 1024 1024" version="1.1" xmlns="http://www.w3.org/2000/svg" p-id="2203" xmlns:xlink="http://www.w3.org/1999/xlink" width="64" height="64"><defs><style type="text/css"></style></defs><path d="M982.72 457.28a32 32 0 0 0-45.44 0L864 530.88V512a416 416 0 1 0-416 416 32 32 0 0 0 0-64 352 352 0 1 1 352-352v18.88l-73.28-73.6a32 32 0 0 0-45.44 45.44l128 128a32 32 0 0 0 45.44 0l128-128a32 32 0 0 0 0-45.44z" fill="" p-id="2204"></path></svg>